<mxfile host="app.diagrams.net" agent="Mozilla/5.0 (Windows NT 10.0; Win64; x64) AppleWebKit/537.36 (KHTML, like Gecko) Chrome/134.0.0.0 Safari/537.36" version="26.1.1">
  <diagram id="C5RBs43oDa-KdzZeNtuy" name="Page-1">
    <mxGraphModel dx="2049" dy="2223" grid="1" gridSize="10" guides="1" tooltips="1" connect="1" arrows="1" fold="1" page="1" pageScale="1" pageWidth="827" pageHeight="1169" math="0" shadow="0">
      <root>
        <mxCell id="WIyWlLk6GJQsqaUBKTNV-0" />
        <mxCell id="WIyWlLk6GJQsqaUBKTNV-1" parent="WIyWlLk6GJQsqaUBKTNV-0" />
        <mxCell id="zkfFHV4jXpPFQw0GAbJ--0" value="DomListener" style="swimlane;fontStyle=1;align=center;verticalAlign=top;childLayout=stackLayout;horizontal=1;startSize=26;horizontalStack=0;resizeParent=1;resizeLast=0;collapsible=1;marginBottom=0;rounded=0;shadow=0;strokeWidth=1;fontSize=16;spacingTop=0;" parent="WIyWlLk6GJQsqaUBKTNV-1" vertex="1">
          <mxGeometry x="250" y="-233" width="290" height="276" as="geometry">
            <mxRectangle x="230" y="140" width="160" height="26" as="alternateBounds" />
          </mxGeometry>
        </mxCell>
        <mxCell id="dxaMs_Pjyfe4Iu19pI3l-0" value="&lt;div style=&quot;font-size: 14px;&quot;&gt;&lt;b&gt;// API to work with DOM&lt;/b&gt;&lt;/div&gt;&lt;div style=&quot;font-size: 14px;&quot;&gt;&lt;b&gt;&lt;br&gt;&lt;/b&gt;&lt;/div&gt;&lt;b style=&quot;font-size: 14px;&quot;&gt;constructor&lt;/b&gt;&lt;span style=&quot;font-size: 14px;&quot;&gt;($root, listeners) {&lt;/span&gt;&lt;div style=&quot;font-size: 14px;&quot;&gt;&lt;span style=&quot;white-space: pre;&quot;&gt;&#x9;&lt;/span&gt;this.$root =&amp;nbsp;&lt;span style=&quot;background-color: transparent; color: light-dark(rgb(0, 0, 0), rgb(255, 255, 255));&quot;&gt;$root;&lt;/span&gt;&lt;/div&gt;&lt;div style=&quot;font-size: 14px;&quot;&gt;&lt;span style=&quot;background-color: transparent; color: light-dark(rgb(0, 0, 0), rgb(255, 255, 255));&quot;&gt;&lt;span style=&quot;white-space: pre;&quot;&gt;&#x9;&lt;/span&gt;this.listeners =&amp;nbsp;&lt;/span&gt;&lt;span style=&quot;background-color: transparent; color: light-dark(rgb(0, 0, 0), rgb(255, 255, 255));&quot;&gt;listeners;&lt;/span&gt;&lt;span style=&quot;background-color: transparent; color: light-dark(rgb(0, 0, 0), rgb(255, 255, 255));&quot;&gt;&lt;br&gt;&lt;/span&gt;&lt;/div&gt;&lt;div style=&quot;font-size: 14px;&quot;&gt;&lt;span style=&quot;background-color: transparent; color: light-dark(rgb(0, 0, 0), rgb(255, 255, 255));&quot;&gt;}&lt;/span&gt;&lt;/div&gt;&lt;div style=&quot;font-size: 14px;&quot;&gt;&lt;span style=&quot;background-color: transparent; color: light-dark(rgb(0, 0, 0), rgb(255, 255, 255));&quot;&gt;&lt;b&gt;initDOMListeners&lt;/b&gt;(){&lt;/span&gt;&lt;/div&gt;&lt;div style=&quot;font-size: 14px;&quot;&gt;&lt;span style=&quot;background-color: transparent; color: light-dark(rgb(0, 0, 0), rgb(255, 255, 255));&quot;&gt;&lt;span style=&quot;white-space: pre;&quot;&gt;&#x9;&lt;/span&gt;!!! &lt;/span&gt;&lt;b&gt;&lt;font style=&quot;color: rgb(255, 0, 0);&quot;&gt;&lt;span style=&quot;background-color: transparent;&quot;&gt;&lt;font&gt;Пока что тут обращение&lt;/font&gt;&lt;/span&gt;&lt;span style=&quot;background-color: transparent;&quot;&gt;&lt;br&gt;&lt;/span&gt;&lt;/font&gt;&lt;/b&gt;&lt;/div&gt;&lt;div style=&quot;font-size: 14px;&quot;&gt;&lt;span style=&quot;background-color: transparent;&quot;&gt;&lt;font style=&quot;color: rgb(255, 0, 0);&quot;&gt;&lt;b style=&quot;&quot;&gt;&lt;span style=&quot;white-space: pre;&quot;&gt;&#x9;&lt;/span&gt;к методу наследуемых классов&lt;/b&gt;&lt;/font&gt;&lt;/span&gt;&lt;/div&gt;&lt;div style=&quot;font-size: 14px;&quot;&gt;&lt;span style=&quot;background-color: transparent; color: light-dark(rgb(0, 0, 0), rgb(255, 255, 255));&quot;&gt;}&lt;/span&gt;&lt;/div&gt;&lt;div style=&quot;font-size: 14px;&quot;&gt;&lt;span style=&quot;background-color: transparent; color: light-dark(rgb(0, 0, 0), rgb(255, 255, 255));&quot;&gt;&lt;b&gt;removeDOMListeners&lt;/b&gt;(){&lt;/span&gt;&lt;/div&gt;&lt;div style=&quot;font-size: 14px;&quot;&gt;&lt;div&gt;&lt;span style=&quot;background-color: transparent; color: light-dark(rgb(0, 0, 0), rgb(255, 255, 255));&quot;&gt;&lt;span style=&quot;white-space: pre;&quot;&gt;&#x9;&lt;/span&gt;!!!&amp;nbsp;&lt;/span&gt;&lt;b&gt;&lt;font style=&quot;color: rgb(255, 0, 0);&quot;&gt;&lt;span style=&quot;background-color: transparent;&quot;&gt;Пока что тут обращение&lt;/span&gt;&lt;span style=&quot;background-color: transparent;&quot;&gt;&lt;br&gt;&lt;/span&gt;&lt;/font&gt;&lt;/b&gt;&lt;/div&gt;&lt;div&gt;&lt;span style=&quot;background-color: transparent;&quot;&gt;&lt;font style=&quot;color: rgb(255, 0, 0);&quot;&gt;&lt;b&gt;&lt;span style=&quot;white-space-collapse: preserve;&quot;&gt;&#x9;&lt;/span&gt;к методу наследуемых классов&lt;/b&gt;&lt;/font&gt;&lt;/span&gt;&lt;/div&gt;&lt;/div&gt;&lt;div style=&quot;font-size: 14px;&quot;&gt;&lt;span style=&quot;background-color: transparent; color: light-dark(rgb(0, 0, 0), rgb(255, 255, 255));&quot;&gt;}&lt;/span&gt;&lt;/div&gt;" style="text;html=1;align=left;verticalAlign=middle;resizable=0;points=[];autosize=1;strokeColor=none;fillColor=default;spacingTop=4;spacingLeft=16;" vertex="1" parent="zkfFHV4jXpPFQw0GAbJ--0">
          <mxGeometry y="26" width="290" height="250" as="geometry" />
        </mxCell>
        <mxCell id="zkfFHV4jXpPFQw0GAbJ--17" value="ExelComponent" style="swimlane;fontStyle=1;align=center;verticalAlign=top;childLayout=stackLayout;horizontal=1;startSize=26;horizontalStack=0;resizeParent=1;resizeLast=0;collapsible=1;marginBottom=0;rounded=0;shadow=0;strokeWidth=1;fontSize=16;strokeColor=default;glass=0;labelBackgroundColor=none;labelBorderColor=none;gradientColor=none;" parent="WIyWlLk6GJQsqaUBKTNV-1" vertex="1">
          <mxGeometry x="600" y="-240" width="250" height="290" as="geometry">
            <mxRectangle x="550" y="140" width="160" height="26" as="alternateBounds" />
          </mxGeometry>
        </mxCell>
        <mxCell id="dxaMs_Pjyfe4Iu19pI3l-5" value="&lt;div style=&quot;font-size: 14px;&quot;&gt;&lt;b&gt;&lt;br&gt;&lt;/b&gt;&lt;/div&gt;&lt;div style=&quot;font-size: 14px;&quot;&gt;&lt;b&gt;//&amp;nbsp;&lt;/b&gt;&lt;span style=&quot;font-size: 15px; font-weight: 700; background-color: transparent; color: light-dark(rgb(0, 0, 0), rgb(255, 255, 255));&quot;&gt;extends DomListener&lt;/span&gt;&lt;/div&gt;&lt;div style=&quot;font-size: 14px;&quot;&gt;&lt;b&gt;// API to work with DOM&lt;/b&gt;&lt;/div&gt;&lt;div style=&quot;font-size: 14px;&quot;&gt;&lt;b&gt;&lt;br&gt;&lt;/b&gt;&lt;/div&gt;&lt;b style=&quot;font-size: 14px;&quot;&gt;constructor&lt;/b&gt;&lt;span style=&quot;font-size: 14px;&quot;&gt;($root, options) {&lt;/span&gt;&lt;div style=&quot;font-size: 14px;&quot;&gt;&lt;span style=&quot;white-space-collapse: preserve;&quot;&gt;&#x9;&lt;/span&gt;super($root, options.listeners)&lt;/div&gt;&lt;div style=&quot;font-size: 14px;&quot;&gt;&lt;span style=&quot;background-color: transparent; color: light-dark(rgb(0, 0, 0), rgb(255, 255, 255));&quot;&gt;}&lt;/span&gt;&lt;/div&gt;&lt;div style=&quot;font-size: 14px;&quot;&gt;&lt;span style=&quot;background-color: transparent; color: light-dark(rgb(0, 0, 0), rgb(255, 255, 255));&quot;&gt;&lt;b&gt;toHtml&lt;/b&gt;() {}&lt;/span&gt;&lt;/div&gt;&lt;div style=&quot;font-size: 14px;&quot;&gt;&lt;span style=&quot;background-color: transparent; color: light-dark(rgb(0, 0, 0), rgb(255, 255, 255));&quot;&gt;&lt;b&gt;init&lt;/b&gt;() {&lt;/span&gt;&lt;/div&gt;&lt;div style=&quot;font-size: 14px;&quot;&gt;&lt;span style=&quot;background-color: transparent; color: light-dark(rgb(0, 0, 0), rgb(255, 255, 255));&quot;&gt;&lt;span style=&quot;white-space: pre;&quot;&gt;&#x9;&lt;/span&gt;this.initDOMListeners()&lt;br&gt;&lt;/span&gt;&lt;/div&gt;&lt;div style=&quot;font-size: 14px;&quot;&gt;&lt;span style=&quot;background-color: transparent; color: light-dark(rgb(0, 0, 0), rgb(255, 255, 255));&quot;&gt;}&lt;/span&gt;&lt;/div&gt;&lt;div style=&quot;font-size: 14px;&quot;&gt;&lt;span style=&quot;background-color: transparent; color: light-dark(rgb(0, 0, 0), rgb(255, 255, 255));&quot;&gt;&lt;b&gt;destroy&lt;/b&gt;(){&lt;/span&gt;&lt;/div&gt;&lt;div style=&quot;font-size: 14px;&quot;&gt;&lt;span style=&quot;background-color: transparent; color: light-dark(rgb(0, 0, 0), rgb(255, 255, 255));&quot;&gt;&lt;span style=&quot;white-space: pre;&quot;&gt;&#x9;&lt;/span&gt;this.removeDOMListeners()&lt;br&gt;&lt;/span&gt;&lt;/div&gt;&lt;div style=&quot;font-size: 14px;&quot;&gt;&lt;span style=&quot;background-color: transparent; color: light-dark(rgb(0, 0, 0), rgb(255, 255, 255));&quot;&gt;}&lt;/span&gt;&lt;/div&gt;" style="text;html=1;align=left;verticalAlign=middle;resizable=0;points=[];autosize=1;strokeColor=none;fillColor=default;spacingLeft=15;" vertex="1" parent="zkfFHV4jXpPFQw0GAbJ--17">
          <mxGeometry y="26" width="250" height="250" as="geometry" />
        </mxCell>
        <mxCell id="P5tuONgcbiqox-lnXHKe-1" value="&lt;font style=&quot;font-size: 16px;&quot;&gt;DOM&lt;/font&gt;" style="swimlane;whiteSpace=wrap;html=1;gradientColor=none;" parent="WIyWlLk6GJQsqaUBKTNV-1" vertex="1">
          <mxGeometry x="10" y="250" width="240" height="266" as="geometry" />
        </mxCell>
        <mxCell id="P5tuONgcbiqox-lnXHKe-3" value="&lt;div&gt;&lt;b&gt;// API to work with dom element&lt;/b&gt;&lt;/div&gt;&lt;div&gt;&lt;b&gt;// create&amp;nbsp;&lt;/b&gt;&lt;/div&gt;&lt;div&gt;&lt;b&gt;&lt;br&gt;&lt;/b&gt;&lt;/div&gt;&lt;b&gt;constructor&lt;/b&gt;(selector) {&lt;div&gt;&amp;nbsp; &amp;nbsp;this.$el = selector&lt;/div&gt;&lt;div&gt;&lt;span style=&quot;background-color: transparent; color: light-dark(rgb(0, 0, 0), rgb(255, 255, 255));&quot;&gt;}&lt;/span&gt;&lt;/div&gt;&lt;div&gt;&lt;span style=&quot;background-color: transparent; color: light-dark(rgb(0, 0, 0), rgb(255, 255, 255));&quot;&gt;&lt;b&gt;setHtml&lt;/b&gt;(html) {&lt;/span&gt;&lt;span style=&quot;background-color: transparent; color: light-dark(rgb(0, 0, 0), rgb(255, 255, 255));&quot;&gt;}&lt;/span&gt;&lt;/div&gt;&lt;div&gt;&lt;span style=&quot;background-color: transparent; color: light-dark(rgb(0, 0, 0), rgb(255, 255, 255));&quot;&gt;&lt;b&gt;appendChild&lt;/b&gt;(node){}&lt;/span&gt;&lt;/div&gt;&lt;div&gt;&lt;span style=&quot;background-color: transparent; color: light-dark(rgb(0, 0, 0), rgb(255, 255, 255));&quot;&gt;&lt;b&gt;on&lt;/b&gt;(event,cb){}&lt;/span&gt;&lt;/div&gt;&lt;div&gt;&lt;span style=&quot;background-color: transparent; color: light-dark(rgb(0, 0, 0), rgb(255, 255, 255));&quot;&gt;&lt;b&gt;off&lt;/b&gt;(event,cb){}&lt;/span&gt;&lt;/div&gt;&lt;div&gt;&lt;span style=&quot;background-color: transparent; color: light-dark(rgb(0, 0, 0), rgb(255, 255, 255));&quot;&gt;&lt;br&gt;&lt;/span&gt;&lt;/div&gt;&lt;div&gt;&lt;br&gt;&lt;/div&gt;&lt;div&gt;&lt;br&gt;&lt;/div&gt;" style="text;html=1;align=left;verticalAlign=middle;resizable=0;points=[];autosize=1;strokeColor=none;fillColor=default;fontSize=14;" parent="P5tuONgcbiqox-lnXHKe-1" vertex="1">
          <mxGeometry x="10" y="36" width="230" height="230" as="geometry" />
        </mxCell>
        <mxCell id="dxaMs_Pjyfe4Iu19pI3l-1" value="" style="edgeStyle=elbowEdgeStyle;elbow=horizontal;endArrow=classic;html=1;curved=0;rounded=0;endSize=8;startSize=8;strokeWidth=2;" edge="1" parent="WIyWlLk6GJQsqaUBKTNV-1" source="zkfFHV4jXpPFQw0GAbJ--0" target="zkfFHV4jXpPFQw0GAbJ--17">
          <mxGeometry width="50" height="50" relative="1" as="geometry">
            <mxPoint x="390" y="410" as="sourcePoint" />
            <mxPoint x="530" y="230" as="targetPoint" />
          </mxGeometry>
        </mxCell>
        <mxCell id="dxaMs_Pjyfe4Iu19pI3l-18" style="edgeStyle=orthogonalEdgeStyle;rounded=0;orthogonalLoop=1;jettySize=auto;html=1;strokeWidth=2;" edge="1" parent="WIyWlLk6GJQsqaUBKTNV-1" source="dxaMs_Pjyfe4Iu19pI3l-7" target="dxaMs_Pjyfe4Iu19pI3l-13">
          <mxGeometry relative="1" as="geometry" />
        </mxCell>
        <mxCell id="dxaMs_Pjyfe4Iu19pI3l-7" value="&lt;b&gt;&lt;font style=&quot;font-size: 16px;&quot;&gt;Exel&lt;/font&gt;&lt;/b&gt;" style="swimlane;fontStyle=0;childLayout=stackLayout;horizontal=1;startSize=26;fillColor=none;horizontalStack=0;resizeParent=1;resizeParentMax=0;resizeLast=0;collapsible=1;marginBottom=0;html=1;" vertex="1" parent="WIyWlLk6GJQsqaUBKTNV-1">
          <mxGeometry x="690" y="500" width="240" height="310" as="geometry" />
        </mxCell>
        <mxCell id="dxaMs_Pjyfe4Iu19pI3l-8" value="&lt;font style=&quot;font-size: 14px;&quot;&gt;// &lt;b&gt;API with ExelComponents&lt;/b&gt;&lt;/font&gt;&lt;div&gt;&lt;font style=&quot;font-size: 14px;&quot;&gt;&lt;b&gt;// wrap each component in DOM&lt;/b&gt;&lt;/font&gt;&lt;/div&gt;&lt;div&gt;&lt;font style=&quot;font-size: 14px;&quot;&gt;&lt;b&gt;&lt;br&gt;&lt;/b&gt;&lt;/font&gt;&lt;/div&gt;&lt;div&gt;&lt;font style=&quot;font-size: 14px;&quot;&gt;&lt;b&gt;constructor(selector,options){&lt;/b&gt;&lt;/font&gt;&lt;/div&gt;&lt;div&gt;&lt;font style=&quot;font-size: 14px;&quot;&gt;&lt;b&gt;&lt;span style=&quot;white-space: pre;&quot;&gt;&#x9;&lt;/span&gt;// get all Components &lt;span style=&quot;white-space: pre;&quot;&gt;&#x9;&lt;/span&gt;&lt;span style=&quot;white-space: pre;&quot;&gt;&#x9;&lt;/span&gt;from&amp;nbsp;index.js&lt;br&gt;&lt;/b&gt;&lt;/font&gt;&lt;/div&gt;&lt;div&gt;&lt;font style=&quot;font-size: 14px;&quot;&gt;&lt;b&gt;}&lt;/b&gt;&lt;/font&gt;&lt;/div&gt;&lt;div&gt;&lt;font style=&quot;font-size: 14px;&quot;&gt;&lt;b&gt;getRootNode(){&lt;/b&gt;&lt;/font&gt;&lt;/div&gt;&lt;div&gt;&lt;font style=&quot;font-size: 14px;&quot;&gt;&lt;b&gt;&lt;span style=&quot;white-space: pre;&quot;&gt;&#x9;&lt;/span&gt;// &lt;/b&gt;here logic with setting &lt;span style=&quot;white-space: pre;&quot;&gt;&#x9;&lt;/span&gt;Components and cower with &lt;span style=&quot;white-space: pre;&quot;&gt;&#x9;&lt;/span&gt;DOM&lt;br&gt;&lt;/font&gt;&lt;/div&gt;&lt;div&gt;&lt;font style=&quot;font-size: 14px;&quot;&gt;&lt;b&gt;}&lt;/b&gt;&lt;/font&gt;&lt;/div&gt;&lt;div&gt;&lt;font style=&quot;font-size: 14px;&quot;&gt;&lt;b&gt;render(){&lt;/b&gt;&lt;/font&gt;&lt;/div&gt;&lt;div&gt;&lt;font style=&quot;font-size: 14px;&quot;&gt;&lt;b&gt;&lt;span style=&quot;white-space: pre;&quot;&gt;&#x9;&lt;/span&gt;// &lt;/b&gt;here logic with init &lt;span style=&quot;white-space: pre;&quot;&gt;&#x9;&lt;/span&gt;Components&lt;br&gt;&lt;/font&gt;&lt;/div&gt;&lt;div&gt;&lt;font style=&quot;font-size: 14px;&quot;&gt;&lt;b&gt;}&lt;/b&gt;&lt;/font&gt;&lt;/div&gt;" style="text;strokeColor=none;fillColor=default;align=left;verticalAlign=top;spacingLeft=4;spacingRight=4;overflow=hidden;rotatable=0;points=[[0,0.5],[1,0.5]];portConstraint=eastwest;whiteSpace=wrap;html=1;" vertex="1" parent="dxaMs_Pjyfe4Iu19pI3l-7">
          <mxGeometry y="26" width="240" height="284" as="geometry" />
        </mxCell>
        <mxCell id="dxaMs_Pjyfe4Iu19pI3l-13" value="index.js" style="swimlane;fontStyle=1;fontSize=16;" vertex="1" parent="WIyWlLk6GJQsqaUBKTNV-1">
          <mxGeometry x="10" y="610" width="240" height="210" as="geometry" />
        </mxCell>
        <mxCell id="dxaMs_Pjyfe4Iu19pI3l-14" value="&lt;font style=&quot;font-size: 14px;&quot;&gt;&lt;b&gt;const exel = new Exel(&#39;#app&#39;, {&lt;/b&gt;&lt;/font&gt;&lt;div&gt;&lt;font style=&quot;font-size: 14px;&quot;&gt;&lt;b&gt;&lt;span style=&quot;white-space: pre;&quot;&gt;&lt;span style=&quot;white-space: pre;&quot;&gt;&#x9;&lt;/span&gt;components: [&lt;/span&gt;&lt;/b&gt;&lt;/font&gt;&lt;/div&gt;&lt;div&gt;&lt;font style=&quot;font-size: 14px;&quot;&gt;&lt;b&gt;&lt;span style=&quot;white-space: pre;&quot;&gt;&lt;span style=&quot;white-space: pre;&quot;&gt;&#x9;&lt;/span&gt;&lt;span style=&quot;white-space: pre;&quot;&gt;&#x9;&lt;/span&gt;Header,&lt;br&gt;&lt;/span&gt;&lt;/b&gt;&lt;/font&gt;&lt;/div&gt;&lt;div&gt;&lt;font style=&quot;font-size: 14px;&quot;&gt;&lt;b&gt;&lt;span style=&quot;white-space: pre;&quot;&gt;&lt;span style=&quot;white-space: pre;&quot;&gt;&#x9;&lt;/span&gt;&lt;span style=&quot;white-space: pre;&quot;&gt;&#x9;&lt;/span&gt;Toolbar,&lt;br&gt;&lt;/span&gt;&lt;/b&gt;&lt;/font&gt;&lt;/div&gt;&lt;div&gt;&lt;font style=&quot;font-size: 14px;&quot;&gt;&lt;b&gt;&lt;span style=&quot;white-space: pre;&quot;&gt;&lt;span style=&quot;white-space: pre;&quot;&gt;&#x9;&lt;/span&gt;&lt;span style=&quot;white-space: pre;&quot;&gt;&#x9;&lt;/span&gt;Formula,&lt;br&gt;&lt;/span&gt;&lt;/b&gt;&lt;/font&gt;&lt;/div&gt;&lt;div&gt;&lt;font style=&quot;font-size: 14px;&quot;&gt;&lt;b&gt;&lt;span style=&quot;white-space: pre;&quot;&gt;&lt;span style=&quot;white-space: pre;&quot;&gt;&#x9;&lt;/span&gt;&lt;span style=&quot;white-space: pre;&quot;&gt;&#x9;&lt;/span&gt;Table,&lt;br&gt;&lt;/span&gt;&lt;/b&gt;&lt;/font&gt;&lt;/div&gt;&lt;div&gt;&lt;font style=&quot;font-size: 14px;&quot;&gt;&lt;b&gt;&lt;span style=&quot;white-space: pre;&quot;&gt;&lt;span style=&quot;white-space: pre;&quot;&gt;&#x9;&lt;/span&gt;]&#x9;&lt;/span&gt;&lt;br&gt;&lt;/b&gt;&lt;/font&gt;&lt;/div&gt;&lt;div&gt;&lt;/div&gt;&lt;div&gt;&lt;/div&gt;&lt;div&gt;&lt;font style=&quot;font-size: 14px;&quot;&gt;&lt;b&gt;}&lt;/b&gt;&lt;/font&gt;&lt;b style=&quot;font-size: 14px; background-color: transparent; color: light-dark(rgb(0, 0, 0), rgb(255, 255, 255));&quot;&gt;);&lt;/b&gt;&lt;/div&gt;&lt;div&gt;&lt;b style=&quot;font-size: 14px; background-color: transparent; color: light-dark(rgb(0, 0, 0), rgb(255, 255, 255));&quot;&gt;&lt;br&gt;&lt;/b&gt;&lt;/div&gt;&lt;div&gt;&lt;span style=&quot;font-size: 14px;&quot;&gt;&lt;b&gt;exel.render();&lt;/b&gt;&lt;/span&gt;&lt;/div&gt;" style="text;html=1;align=left;verticalAlign=middle;resizable=0;points=[];autosize=1;strokeColor=none;fillColor=default;" vertex="1" parent="dxaMs_Pjyfe4Iu19pI3l-13">
          <mxGeometry x="5" y="28" width="230" height="180" as="geometry" />
        </mxCell>
        <mxCell id="dxaMs_Pjyfe4Iu19pI3l-20" value="&lt;font style=&quot;font-size: 16px;&quot;&gt;&lt;b&gt;Header&lt;/b&gt;&lt;/font&gt;" style="swimlane;fontStyle=0;childLayout=stackLayout;horizontal=1;startSize=26;fillColor=none;horizontalStack=0;resizeParent=1;resizeParentMax=0;resizeLast=0;collapsible=1;marginBottom=0;html=1;" vertex="1" parent="WIyWlLk6GJQsqaUBKTNV-1">
          <mxGeometry x="430" y="110" width="140" height="140" as="geometry" />
        </mxCell>
        <mxCell id="dxaMs_Pjyfe4Iu19pI3l-21" value="&lt;font&gt;static className&lt;/font&gt;&lt;div&gt;&lt;span style=&quot;background-color: transparent; color: light-dark(rgb(0, 0, 0), rgb(255, 255, 255));&quot;&gt;&lt;b&gt;toHtml&lt;/b&gt;(){&lt;/span&gt;&lt;/div&gt;&lt;div&gt;&lt;span style=&quot;background-color: transparent; color: light-dark(rgb(0, 0, 0), rgb(255, 255, 255));&quot;&gt;&lt;span style=&quot;white-space: pre;&quot;&gt;&#x9;&lt;/span&gt;return &#39;HTML&#39;&lt;br&gt;&lt;/span&gt;&lt;/div&gt;&lt;div&gt;&lt;span style=&quot;background-color: transparent; color: light-dark(rgb(0, 0, 0), rgb(255, 255, 255));&quot;&gt;}&amp;nbsp;&lt;/span&gt;&lt;/div&gt;&lt;div&gt;&lt;span style=&quot;background-color: transparent; color: light-dark(rgb(0, 0, 0), rgb(255, 255, 255));&quot;&gt;&lt;b&gt;onClick&lt;/b&gt;(){}&lt;/span&gt;&lt;/div&gt;&lt;div&gt;&lt;div&gt;&lt;font&gt;&lt;br&gt;&lt;/font&gt;&lt;/div&gt;&lt;/div&gt;" style="text;strokeColor=none;fillColor=none;align=left;verticalAlign=top;spacingLeft=4;spacingRight=4;overflow=hidden;rotatable=0;points=[[0,0.5],[1,0.5]];portConstraint=eastwest;whiteSpace=wrap;html=1;fontSize=14;" vertex="1" parent="dxaMs_Pjyfe4Iu19pI3l-20">
          <mxGeometry y="26" width="140" height="114" as="geometry" />
        </mxCell>
        <mxCell id="dxaMs_Pjyfe4Iu19pI3l-24" value="&lt;span style=&quot;font-size: 16px;&quot;&gt;&lt;b&gt;Toolbar&lt;/b&gt;&lt;/span&gt;" style="swimlane;fontStyle=0;childLayout=stackLayout;horizontal=1;startSize=26;fillColor=none;horizontalStack=0;resizeParent=1;resizeParentMax=0;resizeLast=0;collapsible=1;marginBottom=0;html=1;" vertex="1" parent="WIyWlLk6GJQsqaUBKTNV-1">
          <mxGeometry x="630" y="110" width="150" height="140" as="geometry" />
        </mxCell>
        <mxCell id="dxaMs_Pjyfe4Iu19pI3l-27" value="&lt;div&gt;&lt;font style=&quot;font-size: 14px;&quot;&gt;static className&lt;/font&gt;&lt;div style=&quot;font-size: 14px;&quot;&gt;&lt;span style=&quot;background-color: transparent; color: light-dark(rgb(0, 0, 0), rgb(255, 255, 255));&quot;&gt;&lt;b&gt;toHtml&lt;/b&gt;(){&lt;/span&gt;&lt;/div&gt;&lt;div style=&quot;font-size: 14px;&quot;&gt;&lt;span style=&quot;background-color: transparent; color: light-dark(rgb(0, 0, 0), rgb(255, 255, 255));&quot;&gt;&lt;span style=&quot;white-space: pre;&quot;&gt;&#x9;&lt;/span&gt;return &#39;HTML&#39;&lt;br&gt;&lt;/span&gt;&lt;/div&gt;&lt;div style=&quot;font-size: 14px;&quot;&gt;&lt;span style=&quot;background-color: transparent; color: light-dark(rgb(0, 0, 0), rgb(255, 255, 255));&quot;&gt;}&amp;nbsp;&lt;/span&gt;&lt;/div&gt;&lt;div style=&quot;font-size: 14px;&quot;&gt;&lt;span style=&quot;background-color: transparent; color: light-dark(rgb(0, 0, 0), rgb(255, 255, 255));&quot;&gt;&lt;b&gt;onClick&lt;/b&gt;(){}&lt;/span&gt;&lt;/div&gt;&lt;div&gt;&lt;span style=&quot;background-color: transparent; color: light-dark(rgb(0, 0, 0), rgb(255, 255, 255));&quot;&gt;&lt;br&gt;&lt;/span&gt;&lt;/div&gt;&lt;div style=&quot;font-size: 14px;&quot;&gt;&lt;/div&gt;&lt;/div&gt;&lt;div style=&quot;font-size: 14px;&quot;&gt;&lt;/div&gt;" style="text;strokeColor=none;fillColor=default;align=left;verticalAlign=top;spacingLeft=4;spacingRight=4;overflow=hidden;rotatable=0;points=[[0,0.5],[1,0.5]];portConstraint=eastwest;whiteSpace=wrap;html=1;" vertex="1" parent="dxaMs_Pjyfe4Iu19pI3l-24">
          <mxGeometry y="26" width="150" height="114" as="geometry" />
        </mxCell>
        <mxCell id="dxaMs_Pjyfe4Iu19pI3l-28" value="&lt;span style=&quot;font-size: 16px;&quot;&gt;&lt;b&gt;Formula&lt;/b&gt;&lt;/span&gt;" style="swimlane;fontStyle=0;childLayout=stackLayout;horizontal=1;startSize=26;fillColor=none;horizontalStack=0;resizeParent=1;resizeParentMax=0;resizeLast=0;collapsible=1;marginBottom=0;html=1;" vertex="1" parent="WIyWlLk6GJQsqaUBKTNV-1">
          <mxGeometry x="820" y="110" width="150" height="140" as="geometry" />
        </mxCell>
        <mxCell id="dxaMs_Pjyfe4Iu19pI3l-29" value="&lt;div&gt;&lt;font style=&quot;font-size: 14px;&quot;&gt;static className&lt;/font&gt;&lt;div style=&quot;font-size: 14px;&quot;&gt;&lt;span style=&quot;background-color: transparent; color: light-dark(rgb(0, 0, 0), rgb(255, 255, 255));&quot;&gt;&lt;b&gt;toHtml&lt;/b&gt;(){&lt;/span&gt;&lt;/div&gt;&lt;div style=&quot;font-size: 14px;&quot;&gt;&lt;span style=&quot;background-color: transparent; color: light-dark(rgb(0, 0, 0), rgb(255, 255, 255));&quot;&gt;&lt;span style=&quot;white-space: pre;&quot;&gt;&#x9;&lt;/span&gt;return &#39;HTML&#39;&lt;br&gt;&lt;/span&gt;&lt;/div&gt;&lt;div style=&quot;font-size: 14px;&quot;&gt;&lt;span style=&quot;background-color: transparent; color: light-dark(rgb(0, 0, 0), rgb(255, 255, 255));&quot;&gt;}&amp;nbsp;&lt;/span&gt;&lt;/div&gt;&lt;div style=&quot;font-size: 14px;&quot;&gt;&lt;span style=&quot;background-color: transparent; color: light-dark(rgb(0, 0, 0), rgb(255, 255, 255));&quot;&gt;&lt;b&gt;onClick&lt;/b&gt;(){}&lt;/span&gt;&lt;/div&gt;&lt;div&gt;&lt;span style=&quot;background-color: transparent; color: light-dark(rgb(0, 0, 0), rgb(255, 255, 255));&quot;&gt;&lt;br&gt;&lt;/span&gt;&lt;/div&gt;&lt;div style=&quot;font-size: 14px;&quot;&gt;&lt;/div&gt;&lt;/div&gt;&lt;div style=&quot;font-size: 14px;&quot;&gt;&lt;/div&gt;" style="text;strokeColor=none;fillColor=default;align=left;verticalAlign=top;spacingLeft=4;spacingRight=4;overflow=hidden;rotatable=0;points=[[0,0.5],[1,0.5]];portConstraint=eastwest;whiteSpace=wrap;html=1;" vertex="1" parent="dxaMs_Pjyfe4Iu19pI3l-28">
          <mxGeometry y="26" width="150" height="114" as="geometry" />
        </mxCell>
        <mxCell id="dxaMs_Pjyfe4Iu19pI3l-32" value="&lt;span style=&quot;font-size: 16px;&quot;&gt;&lt;b&gt;Table&lt;/b&gt;&lt;/span&gt;" style="swimlane;fontStyle=0;childLayout=stackLayout;horizontal=1;startSize=26;fillColor=none;horizontalStack=0;resizeParent=1;resizeParentMax=0;resizeLast=0;collapsible=1;marginBottom=0;html=1;" vertex="1" parent="WIyWlLk6GJQsqaUBKTNV-1">
          <mxGeometry x="1010" y="110" width="130" height="140" as="geometry" />
        </mxCell>
        <mxCell id="dxaMs_Pjyfe4Iu19pI3l-33" value="&lt;div&gt;&lt;font style=&quot;font-size: 14px;&quot;&gt;static className&lt;/font&gt;&lt;div style=&quot;font-size: 14px;&quot;&gt;&lt;span style=&quot;background-color: transparent; color: light-dark(rgb(0, 0, 0), rgb(255, 255, 255));&quot;&gt;&lt;b&gt;toHtml&lt;/b&gt;(){&lt;/span&gt;&lt;/div&gt;&lt;div style=&quot;font-size: 14px;&quot;&gt;&lt;span style=&quot;background-color: transparent; color: light-dark(rgb(0, 0, 0), rgb(255, 255, 255));&quot;&gt;&lt;span style=&quot;white-space: pre;&quot;&gt;&#x9;&lt;/span&gt;return &#39;HTML&#39;&lt;br&gt;&lt;/span&gt;&lt;/div&gt;&lt;div style=&quot;font-size: 14px;&quot;&gt;&lt;span style=&quot;background-color: transparent; color: light-dark(rgb(0, 0, 0), rgb(255, 255, 255));&quot;&gt;}&amp;nbsp;&lt;/span&gt;&lt;/div&gt;&lt;div style=&quot;font-size: 14px;&quot;&gt;&lt;span style=&quot;background-color: transparent; color: light-dark(rgb(0, 0, 0), rgb(255, 255, 255));&quot;&gt;&lt;b&gt;onClick&lt;/b&gt;(){}&lt;/span&gt;&lt;/div&gt;&lt;div&gt;&lt;span style=&quot;background-color: transparent; color: light-dark(rgb(0, 0, 0), rgb(255, 255, 255));&quot;&gt;&lt;br&gt;&lt;/span&gt;&lt;/div&gt;&lt;div style=&quot;font-size: 14px;&quot;&gt;&lt;/div&gt;&lt;/div&gt;&lt;div style=&quot;font-size: 14px;&quot;&gt;&lt;/div&gt;" style="text;strokeColor=none;fillColor=default;align=left;verticalAlign=top;spacingLeft=4;spacingRight=4;overflow=hidden;rotatable=0;points=[[0,0.5],[1,0.5]];portConstraint=eastwest;whiteSpace=wrap;html=1;" vertex="1" parent="dxaMs_Pjyfe4Iu19pI3l-32">
          <mxGeometry y="26" width="130" height="114" as="geometry" />
        </mxCell>
        <mxCell id="dxaMs_Pjyfe4Iu19pI3l-38" value="" style="edgeStyle=elbowEdgeStyle;elbow=vertical;endArrow=classic;html=1;curved=0;rounded=0;endSize=8;startSize=8;entryX=0.5;entryY=0;entryDx=0;entryDy=0;strokeWidth=2;" edge="1" parent="WIyWlLk6GJQsqaUBKTNV-1" target="dxaMs_Pjyfe4Iu19pI3l-20">
          <mxGeometry width="50" height="50" relative="1" as="geometry">
            <mxPoint x="650" y="50" as="sourcePoint" />
            <mxPoint x="520" y="50" as="targetPoint" />
            <Array as="points">
              <mxPoint x="490" y="80" />
            </Array>
          </mxGeometry>
        </mxCell>
        <mxCell id="dxaMs_Pjyfe4Iu19pI3l-46" style="edgeStyle=orthogonalEdgeStyle;rounded=0;orthogonalLoop=1;jettySize=auto;html=1;entryX=0.179;entryY=0.019;entryDx=0;entryDy=0;entryPerimeter=0;strokeWidth=2;" edge="1" parent="WIyWlLk6GJQsqaUBKTNV-1" source="zkfFHV4jXpPFQw0GAbJ--17" target="dxaMs_Pjyfe4Iu19pI3l-28">
          <mxGeometry relative="1" as="geometry">
            <Array as="points">
              <mxPoint x="770" y="80" />
              <mxPoint x="847" y="80" />
            </Array>
          </mxGeometry>
        </mxCell>
        <mxCell id="dxaMs_Pjyfe4Iu19pI3l-58" style="edgeStyle=orthogonalEdgeStyle;rounded=0;orthogonalLoop=1;jettySize=auto;html=1;entryX=0.446;entryY=-0.014;entryDx=0;entryDy=0;entryPerimeter=0;strokeWidth=2;" edge="1" parent="WIyWlLk6GJQsqaUBKTNV-1" source="dxaMs_Pjyfe4Iu19pI3l-5" target="dxaMs_Pjyfe4Iu19pI3l-32">
          <mxGeometry relative="1" as="geometry" />
        </mxCell>
        <mxCell id="dxaMs_Pjyfe4Iu19pI3l-59" style="edgeStyle=orthogonalEdgeStyle;rounded=0;orthogonalLoop=1;jettySize=auto;html=1;strokeWidth=2;" edge="1" parent="WIyWlLk6GJQsqaUBKTNV-1" source="zkfFHV4jXpPFQw0GAbJ--17" target="dxaMs_Pjyfe4Iu19pI3l-24">
          <mxGeometry relative="1" as="geometry">
            <mxPoint x="680" y="50" as="sourcePoint" />
          </mxGeometry>
        </mxCell>
        <mxCell id="dxaMs_Pjyfe4Iu19pI3l-60" style="edgeStyle=orthogonalEdgeStyle;rounded=0;orthogonalLoop=1;jettySize=auto;html=1;entryX=0.017;entryY=0.06;entryDx=0;entryDy=0;entryPerimeter=0;strokeWidth=2;" edge="1" parent="WIyWlLk6GJQsqaUBKTNV-1" source="P5tuONgcbiqox-lnXHKe-3" target="dxaMs_Pjyfe4Iu19pI3l-8">
          <mxGeometry relative="1" as="geometry" />
        </mxCell>
        <mxCell id="dxaMs_Pjyfe4Iu19pI3l-62" style="edgeStyle=orthogonalEdgeStyle;rounded=0;orthogonalLoop=1;jettySize=auto;html=1;entryX=0.104;entryY=-0.003;entryDx=0;entryDy=0;entryPerimeter=0;strokeWidth=2;" edge="1" parent="WIyWlLk6GJQsqaUBKTNV-1" source="dxaMs_Pjyfe4Iu19pI3l-20" target="dxaMs_Pjyfe4Iu19pI3l-7">
          <mxGeometry relative="1" as="geometry">
            <Array as="points">
              <mxPoint x="480" y="460" />
              <mxPoint x="715" y="460" />
            </Array>
          </mxGeometry>
        </mxCell>
        <mxCell id="dxaMs_Pjyfe4Iu19pI3l-63" style="edgeStyle=orthogonalEdgeStyle;rounded=0;orthogonalLoop=1;jettySize=auto;html=1;entryX=0.221;entryY=-0.006;entryDx=0;entryDy=0;entryPerimeter=0;strokeWidth=2;" edge="1" parent="WIyWlLk6GJQsqaUBKTNV-1" source="dxaMs_Pjyfe4Iu19pI3l-24" target="dxaMs_Pjyfe4Iu19pI3l-7">
          <mxGeometry relative="1" as="geometry" />
        </mxCell>
        <mxCell id="dxaMs_Pjyfe4Iu19pI3l-64" style="edgeStyle=orthogonalEdgeStyle;rounded=0;orthogonalLoop=1;jettySize=auto;html=1;entryX=0.538;entryY=-0.006;entryDx=0;entryDy=0;entryPerimeter=0;strokeWidth=2;" edge="1" parent="WIyWlLk6GJQsqaUBKTNV-1" source="dxaMs_Pjyfe4Iu19pI3l-28" target="dxaMs_Pjyfe4Iu19pI3l-7">
          <mxGeometry relative="1" as="geometry" />
        </mxCell>
        <mxCell id="dxaMs_Pjyfe4Iu19pI3l-65" style="edgeStyle=orthogonalEdgeStyle;rounded=0;orthogonalLoop=1;jettySize=auto;html=1;entryX=0.838;entryY=0.01;entryDx=0;entryDy=0;entryPerimeter=0;strokeWidth=2;" edge="1" parent="WIyWlLk6GJQsqaUBKTNV-1" source="dxaMs_Pjyfe4Iu19pI3l-32" target="dxaMs_Pjyfe4Iu19pI3l-7">
          <mxGeometry relative="1" as="geometry">
            <Array as="points">
              <mxPoint x="1075" y="410" />
              <mxPoint x="891" y="410" />
            </Array>
          </mxGeometry>
        </mxCell>
        <mxCell id="dxaMs_Pjyfe4Iu19pI3l-66" value="&lt;font&gt;&lt;span&gt;&lt;span&gt;E&lt;/span&gt;&lt;font&gt;ach Component come to Exel via index.js&lt;/font&gt;&lt;/span&gt;&lt;/font&gt;" style="shape=ext;double=1;rounded=1;whiteSpace=wrap;html=1;fontSize=16;fontStyle=1" vertex="1" parent="WIyWlLk6GJQsqaUBKTNV-1">
          <mxGeometry x="440" y="300" width="690" height="70" as="geometry" />
        </mxCell>
      </root>
    </mxGraphModel>
  </diagram>
</mxfile>
